HIERARCHY
ROOT hip
{
  OFFSET 0.0 0.0 0.0
  CHANNELS 6 Xposition Yposition Zposition Zrotation Yrotation Xrotation
  JOINT abdomen
  {
    OFFSET 0.0 20.6881 -0.73152
    CHANNELS 3 Zrotation Xrotation Yrotation
    JOINT chest
    {
      OFFSET 0.0 11.7043 -0.48768
      CHANNELS 3 Zrotation Xrotation Yrotation
      JOINT neck
      {
        OFFSET 0.0 22.1894 -2.19456
        CHANNELS 3 Zrotation Xrotation Yrotation
        JOINT head
        {
          OFFSET -0.24384 7.07133 1.2192
          CHANNELS 3 Zrotation Xrotation Yrotation
          JOINT leftEye
          {
            OFFSET 4.14528 8.04674 8.04672
            CHANNELS 3 Zrotation Xrotation Yrotation
            End Site
            {
              OFFSET 1.0 0.0 0.0
            }
          }
          JOINT rightEye
          {
            OFFSET -3.6576 8.04674 8.04672
            CHANNELS 3 Zrotation Xrotation Yrotation
            End Site
            {
              OFFSET 1.0 0.0 0.0
            }
          }
        }
      }
      JOINT rCollar
      {
        OFFSET -2.68224 19.2634 -4.8768
        CHANNELS 3 Zrotation Xrotation Yrotation
        JOINT rShldr
        {
          OFFSET -8.77824 -1.95073 1.46304
          CHANNELS 3 Zrotation Xrotation Yrotation
          JOINT rForeArm
          {
            OFFSET -28.1742 -1.7115 0.48768
            CHANNELS 3 Zrotation Xrotation Yrotation
            JOINT rHand
            {
              OFFSET -22.5879 0.773209 7.07136
              CHANNELS 3 Zrotation Xrotation Yrotation
              JOINT rThumb1
              {
                OFFSET -1.2192 -0.487915 3.41376
                CHANNELS 3 Zrotation Xrotation Yrotation
                JOINT rThumb2
                {
                  OFFSET -3.37035 -0.52449 3.41376
                  CHANNELS 3 Zrotation Xrotation Yrotation
                  End Site
                  {
                    OFFSET -1.78271 -1.18214 1.43049
                  }
                }
              }
              JOINT rIndex1
              {
                OFFSET -7.75947 0.938293 5.60832
                CHANNELS 3 Zrotation Xrotation Yrotation
                JOINT rIndex2
                {
                  OFFSET -2.54057 -0.884171 1.56538
                  CHANNELS 3 Zrotation Xrotation Yrotation
                  End Site
                  {
                    OFFSET -1.62519 -0.234802 1.16502
                  }
                }
              }
              JOINT rMid1
              {
                OFFSET -8.24714 1.18213 3.41376
                CHANNELS 3 Zrotation Xrotation Yrotation
                JOINT rMid2
                {
                  OFFSET -3.10165 -0.590103 1.0647
                  CHANNELS 3 Zrotation Xrotation Yrotation
                  End Site
                  {
                    OFFSET -2.48547 -0.328903 0.83742
                  }
                }
              }
              JOINT rRing1
              {
                OFFSET -8.82822 0.546677 1.51678
                CHANNELS 3 Zrotation Xrotation Yrotation
                JOINT rRing2
                {
                  OFFSET -2.60934 -0.819778 -0.0198488
                  CHANNELS 3 Zrotation Xrotation Yrotation
                  End Site
                  {
                    OFFSET -2.33842 -0.294052 0.168128
                  }
                }
              }
              JOINT rPinky1
              {
                OFFSET -8.27202 -0.0477905 -0.4584
                CHANNELS 3 Zrotation Xrotation Yrotation
                JOINT rPinky2
                {
                  OFFSET -1.82734 -0.647385 -0.700984
                  CHANNELS 3 Zrotation Xrotation Yrotation
                  End Site
                  {
                    OFFSET -1.69225 -0.51767 -0.607171
                  }
                }
              }
            }
          }
        }
      }
      JOINT lCollar
      {
        OFFSET 2.68224 19.2634 -4.8768
        CHANNELS 3 Zrotation Xrotation Yrotation
        JOINT lShldr
        {
          OFFSET 8.77824 -1.95073 1.46304
          CHANNELS 3 Zrotation Xrotation Yrotation
          JOINT lForeArm
          {
            OFFSET 28.1742 -1.7115 0.48768
            CHANNELS 3 Zrotation Xrotation Yrotation
            JOINT lHand
            {
              OFFSET 22.5879 0.773209 7.07136
              CHANNELS 3 Zrotation Xrotation Yrotation
              JOINT lThumb1
              {
                OFFSET 1.2192 -0.487915 3.41376
                CHANNELS 3 Zrotation Xrotation Yrotation
                JOINT lThumb2
                {
                  OFFSET 3.37035 -0.52449 3.41376
                  CHANNELS 3 Zrotation Xrotation Yrotation
                  End Site
                  {
                    OFFSET 1.78271 -1.18214 1.43049
                  }
                }
              }
              JOINT lIndex1
              {
                OFFSET 7.75947 0.938293 5.60832
                CHANNELS 3 Zrotation Xrotation Yrotation
                JOINT lIndex2
                {
                  OFFSET 2.54057 -0.884171 1.56538
                  CHANNELS 3 Zrotation Xrotation Yrotation
                  End Site
                  {
                    OFFSET 1.62519 -0.234802 1.16502
                  }
                }
              }
              JOINT lMid1
              {
                OFFSET 8.24714 1.18213 3.41376
                CHANNELS 3 Zrotation Xrotation Yrotation
                JOINT lMid2
                {
                  OFFSET 3.10165 -0.590103 1.0647
                  CHANNELS 3 Zrotation Xrotation Yrotation
                  End Site
                  {
                    OFFSET 2.48547 -0.328903 0.83742
                  }
                }
              }
              JOINT lRing1
              {
                OFFSET 8.82822 0.546677 1.51678
                CHANNELS 3 Zrotation Xrotation Yrotation
                JOINT lRing2
                {
                  OFFSET 2.60934 -0.819778 -0.0198488
                  CHANNELS 3 Zrotation Xrotation Yrotation
                  End Site
                  {
                    OFFSET 2.33842 -0.294052 0.168128
                  }
                }
              }
              JOINT lPinky1
              {
                OFFSET 8.27202 -0.0477905 -0.4584
                CHANNELS 3 Zrotation Xrotation Yrotation
                JOINT lPinky2
                {
                  OFFSET 1.82734 -0.647385 -0.700984
                  CHANNELS 3 Zrotation Xrotation Yrotation
                  End Site
                  {
                    OFFSET 1.69225 -0.51767 -0.607171
                  }
                }
              }
            }
          }
        }
      }
    }
  }
  JOINT rButtock
  {
    OFFSET -8.77824 4.35084 1.2192
    CHANNELS 3 Zrotation Xrotation Yrotation
    JOINT rThigh
    {
      OFFSET 0.0 -1.70687 -2.19456
      CHANNELS 3 Zrotation Xrotation Yrotation
      JOINT rShin
      {
        OFFSET 0.0 -36.8199 0.73152
        CHANNELS 3 Zrotation Xrotation Yrotation
        JOINT rFoot
        {
          OFFSET 0.73152 -45.1104 -5.12064
          CHANNELS 3 Zrotation Xrotation Yrotation
          End Site
          {
            OFFSET -1.1221 -3.69964 12.103
          }
        }
      }
    }
  }
  JOINT lButtock
  {
    OFFSET 8.77824 4.35084 1.2192
    CHANNELS 3 Zrotation Xrotation Yrotation
    JOINT lThigh
    {
      OFFSET 0.0 -1.70687 -2.19456
      CHANNELS 3 Zrotation Xrotation Yrotation
      JOINT lShin
      {
        OFFSET 0.0 -36.8199 0.73152
        CHANNELS 3 Zrotation Xrotation Yrotation
        JOINT lFoot
        {
          OFFSET -0.73152 -45.1104 -5.12064
          CHANNELS 3 Zrotation Xrotation Yrotation
          End Site
          {
            OFFSET 1.1221 -3.69964 12.103
          }
        }
      }
    }
  }
}
MOTION
Frames: 4
Frame Time: 0.00833333
28.55200000000002 63.465 -3.012400000000003 -208.809 87.5422 -196.456 -2.03308 44.0107 -2.23955 -2.2078 -10.0928 -0.281307 1.58783 10.7666 -0.638609 3.65811 -48.3835 0.945286 -0.0 0.0 0.0 -0.0 0.0 0.0 0.0 0.0 0.0 0.0 0.0 0.0 0.0 0.0 0.0 -0.0357502 -5.38877 -0.759606 1.26981e-10 -2.71506e-11 -8.87197e-12 2.18695e-10 -4.67399e-11 -1.51132e-11 1.26988e-10 -2.71565e-11 -8.87494e-12 7.73091 5.47488 0.417314 1.26985e-10 -2.71561e-11 -8.8656e-12 2.90554 0.965183 0.102902 1.26991e-10 -2.71574e-11 -8.86649e-12 10.2786 0.731801 0.0259123 1.26972e-10 -2.71518e-11 -8.86023e-12 2.22167 -0.733487 -0.20892 0.0 0.0 0.0 0.0 0.0 0.0 0.0 0.0 0.0 0.624604 -21.8642 3.23292 2.76176e-10 -1.18555e-10 -9.76451e-12 4.77529e-10 -2.02725e-10 -1.23311e-11 2.76173e-10 -1.18552e-10 -9.749e-12 -7.73091 5.47488 -0.417314 2.76177e-10 -1.18552e-10 -9.75954e-12 -2.90554 0.965183 -0.102902 2.76168e-10 -1.18551e-10 -9.76176e-12 -10.2786 0.731801 -0.0259123 2.7618e-10 -1.18548e-10 -9.76411e-12 -2.22167 -0.733487 0.20892 -2.03217e-16 0.0 -3.88251e-19 -7.07906 -49.1366 -11.8628 -132.747 88.4916 132.991 -1.12749 -24.4244 -1.88835 2.03217e-16 0.0 3.88251e-19 -3.27314 -76.7433 5.5813 1.92208 66.783 -1.3154 1.65676 -10.3996 4.98573
29.232 63.5043 -3.1448999999999963 -209.454 87.554 -197.045 -2.03113 44.0214 -2.19546 -2.18002 -10.0964 -0.273386 1.62943 10.768 -0.636021 3.5465 -48.3157 0.888897 -0.0 0.0 0.0 -0.0 0.0 0.0 0.0 0.0 0.0 0.0 0.0 0.0 0.0 0.0 0.0 -0.0349037 -5.32489 -0.750548 -4.52618e-10 -6.04913e-10 6.69886e-11 -7.86868e-10 -1.04644e-09 1.14613e-10 -4.52612e-10 -6.04916e-10 6.69874e-11 7.73091 5.47488 0.417314 -4.52617e-10 -6.04916e-10 6.69994e-11 2.90554 0.965183 0.102902 -4.52608e-10 -6.04918e-10 6.69952e-11 10.2786 0.731801 0.0259123 -4.52626e-10 -6.04912e-10 6.70034e-11 2.22167 -0.733487 -0.20892 0.0 0.0 0.0 0.0 0.0 0.0 0.0 0.0 0.0 0.625412 -21.8775 3.23509 4.63835e-10 -5.78104e-10 1.25413e-10 8.04409e-10 -9.97013e-10 2.23588e-10 4.63833e-10 -5.78103e-10 1.25424e-10 -7.73091 5.47488 -0.417314 4.63836e-10 -5.78103e-10 1.25419e-10 -2.90554 0.965183 -0.102902 4.63828e-10 -5.78102e-10 1.25415e-10 -10.2786 0.731801 -0.0259123 4.63841e-10 -5.781e-10 1.25411e-10 -2.22167 -0.733487 0.20892 -2.03217e-16 0.0 -3.88251e-19 -7.2649 -48.8927 -11.8494 -137.928 88.3409 138.171 -1.01871 -23.5892 -1.69845 2.03217e-16 0.0 3.88251e-19 -3.7238 -76.5627 5.1159 1.97256 67.2072 -1.37463 1.64007 -10.4117 4.94095
29.91300000000001 63.5414 -3.2780999999999985 -210.215 87.5882 -197.723 -2.03224 43.996 -2.13845 -2.16 -10.0956 -0.263397 1.6674 10.7641 -0.63446 3.4456 -48.2331 0.83408 -0.0 0.0 0.0 -0.0 0.0 0.0 0.0 0.0 0.0 0.0 0.0 0.0 0.0 0.0 0.0 -0.0340535 -5.25996 -0.741344 -7.64551e-10 -9.09432e-10 1.13972e-10 -1.32794e-09 -1.57338e-09 1.95057e-10 -7.64545e-10 -9.09433e-10 1.13972e-10 7.73091 5.47488 0.417314 -7.64551e-10 -9.09432e-10 1.13985e-10 2.90554 0.965183 0.102902 -7.64541e-10 -9.09435e-10 1.13979e-10 10.2786 0.731801 0.0259123 -7.64558e-10 -9.0943e-10 1.13988e-10 2.22167 -0.733487 -0.20892 0.0 0.0 0.0 0.0 0.0 0.0 0.0 0.0 0.0 0.62664 -21.8977 3.23839 5.28284e-10 -7.94536e-10 2.15311e-10 9.16787e-10 -1.37126e-09 3.79666e-10 5.28282e-10 -7.94537e-10 2.1532e-10 -7.73091 5.47488 -0.417314 5.28283e-10 -7.94537e-10 2.15317e-10 -2.90554 0.965183 -0.102902 5.28277e-10 -7.94536e-10 2.15312e-10 -10.2786 0.731801 -0.0259123 5.2829e-10 -7.94534e-10 2.15308e-10 -2.22167 -0.733487 0.20892 -2.03217e-16 0.0 -3.88251e-19 -7.504 -48.7641 -11.8667 -143.775 88.1088 144.015 -0.869367 -22.5151 -1.42581 2.03217e-16 0.0 3.88251e-19 -4.16988 -76.3942 4.65287 2.02566 67.6417 -1.43841 1.632 -10.4532 4.92132
30.593000000000018 63.5757 -3.410999999999998 -210.857 87.6323 -198.262 -2.0406 43.9137 -2.06133 -2.15018 -10.0873 -0.250547 1.70007 10.7525 -0.633385 3.36196 -48.1288 0.784441 -0.0 0.0 0.0 -0.0 0.0 0.0 0.0 0.0 0.0 0.0 0.0 0.0 0.0 0.0 0.0 -0.0332072 -5.19437 -0.732048 -6.40872e-10 -7.64416e-10 1.24434e-10 -1.11305e-09 -1.32257e-09 2.13416e-10 -6.40866e-10 -7.64415e-10 1.24435e-10 7.73091 5.47488 0.417314 -6.40871e-10 -7.64415e-10 1.24445e-10 2.90554 0.965183 0.102902 -6.40862e-10 -7.64417e-10 1.24441e-10 10.2786 0.731801 0.0259123 -6.40878e-10 -7.64414e-10 1.24448e-10 2.22167 -0.733487 -0.20892 0.0 0.0 0.0 0.0 0.0 0.0 0.0 0.0 0.0 0.62829 -21.9247 3.24281 3.71878e-10 -5.88593e-10 2.46036e-10 6.44577e-10 -1.01578e-09 4.30612e-10 3.71874e-10 -5.88594e-10 2.46048e-10 -7.73091 5.47488 -0.417314 3.71876e-10 -5.88595e-10 2.46042e-10 -2.90554 0.965183 -0.102902 3.71871e-10 -5.88594e-10 2.46038e-10 -10.2786 0.731801 -0.0259123 3.71884e-10 -5.88592e-10 2.46032e-10 -2.22167 -0.733487 0.20892 -2.03217e-16 0.0 -3.88251e-19 -7.79603 -48.7622 -11.9121 -149.424 87.7875 149.658 -0.675134 -21.2151 -1.04375 2.03217e-16 0.0 3.88251e-19 -4.60568 -76.2562 4.20183 2.08274 68.092 -1.50799 1.63143 -10.526 4.92198
